<?xml version="1.0" encoding="utf-8"?>
<!-- Generator: Adobe Illustrator 27.0.1, SVG Export Plug-In . SVG Version: 6.00 Build 0)  -->
<svg version="1.1" id="Layer_1" xmlns="http://www.w3.org/2000/svg" xmlns:xlink="http://www.w3.org/1999/xlink" x="0px" y="0px"
	 viewBox="0 0 683.8 607.6" style="enable-background:new 0 0 683.8 607.6;" xml:space="preserve">
<style type="text/css">
	.st0{fill:#7DDF64;}
	.st1{fill:#3F3D56;}
	.st2{fill:#FFFFFF;}
	.st3{fill:#9E616A;}
	.st4{fill:#2F2E41;}
	.st5{fill:#E6E6E6;}
	.st6{fill:#CACACA;}
	.st7{opacity:0.2;enable-background:new    ;}
	.st8{fill:#0B0033;}
	.st9{fill:#EC742C;}
</style>
<path class="st0" d="M530.7,537.1l9-33.4c17.5-4.9,35.9-5.4,53.6-1.6c-28.8,14.5-34.3,53.6-56.8,76.8
	c-14.3,14.5-34.5,21.7-54.7,19.6l-23.2,8c1.4-32.8,17-63.5,42.9-83.8c7.2-5.6,15.1-10.2,23.5-13.8
	C527,522.9,530.7,537.1,530.7,537.1z"/>
<path class="st0" d="M110.6,489.7l-15.2-56.3c-29.5-8.2-60.6-9.1-90.5-2.7c48.6,24.5,57.9,90.5,95.8,129.5
	c24.2,24.5,58.2,36.6,92.4,33.1l39.1,13.4c-2.3-55.4-28.7-107.1-72.4-141.4c-12.2-9.4-25.5-17.2-39.7-23.2
	C116.9,465.7,110.6,489.7,110.6,489.7z"/>
<path class="st1" d="M502.2,144.4L502.2,144.4V52.9c0-29.2-23.7-52.9-52.9-52.9l0,0H255.6c-29.2,0-52.9,23.7-52.9,52.9v501.7
	c0,29.2,23.7,52.9,52.9,52.9h193.7c29.2,0,52.9-23.7,52.9-52.9V209.5l0,0c1.8,0,3.3-1.5,3.3-3.3l0,0v-58.4
	C505.6,145.9,504.1,144.4,502.2,144.4z"/>
<path class="st2" d="M491,53.3v501c0,21.7-17.4,39.3-39.1,39.5c-0.1,0-0.3,0-0.4,0H256.8c-21.8,0-39.5-17.7-39.5-39.5v-501
	c0-21.8,17.7-39.5,39.5-39.5h23.6c-3.9,9.6,0.7,20.6,10.3,24.5c2.2,0.9,4.6,1.4,7.1,1.4h111c10.4,0,18.8-8.5,18.8-18.9
	c0-2.4-0.5-4.8-1.4-7h25.3C473.3,13.8,491,31.5,491,53.3z"/>
<path class="st1" d="M203.7,195.5c-2.5,0-4.5-2-4.5-4.5v-30.6c0-2.5,2-4.5,4.5-4.5s4.5,2,4.5,4.5V191
	C208.2,193.5,206.2,195.5,203.7,195.5z"/>
<path class="st1" d="M202.8,136.1c-2.5,0-4.5-2-4.5-4.5V101c0-2.5,2-4.5,4.5-4.5s4.5,2,4.5,4.5v30.6
	C207.3,134,205.3,136.1,202.8,136.1z"/>
<path class="st2" d="M322.7,18.9c0-2.5,2-4.5,4.5-4.5h30.6c2.5,0,4.5,2,4.5,4.5s-2,4.5-4.5,4.5h-30.6
	C324.7,23.4,322.7,21.4,322.7,18.9z"/>
<path class="st1" d="M203.7,247.8c-2.5,0-4.5-2-4.5-4.5v-30.6c0-2.5,2-4.5,4.5-4.5s4.5,2,4.5,4.5v30.6
	C208.2,245.8,206.2,247.8,203.7,247.8z"/>
<circle class="st2" cx="374.9" cy="18.9" r="4.5"/>
<polygon class="st3" points="333,574.3 345.1,574.3 350.9,527.6 333,527.6 "/>
<path class="st4" d="M329.9,570.4h3.4l13.3-5.4l7.1,5.4l0,0c8.4,0,15.2,6.8,15.2,15.2v0.5h-39.1L329.9,570.4z"/>
<polygon class="st3" points="389.3,574.3 401.4,574.3 407.2,527.6 389.3,527.6 "/>
<path class="st4" d="M386.2,570.4h3.4l13.3-5.4l7.1,5.4l0,0c8.4,0,15.2,6.8,15.2,15.2v0.5h-39.1L386.2,570.4z"/>
<path class="st4" d="M399,318.4l-95.3,2.5l1.7,46.4c0,0-1.7,12.4,1.7,15.7s5,3.3,3.3,9.1s7.1,15.3,6,16.3s-3.5,6.9-3.5,6.9l8.3,47.2
	c0,0,5.8,82,7.5,83.7s3.3,0,1.7,4.1s-3.3,2.5-1.7,4.1c1.5,1.6,2.9,3.2,4.1,5h20c0,0,1.5-8.3,1.5-9.1s1.7-5.8,1.7-6.6
	s-1.5-2.3-1.5-2.3c-0.5-1.7-0.8-3.4-1-5.2c0-1.7-5-65.4-5-65.4l9.9-82.8l24,81.2c0,0,0,71.2,1.7,72.9s1.7,0.8,0.8,4.1
	c-0.8,3.3-4.1,2.5-1.7,5c2.5,2.5,3.3-1.7,2.5,2.5l-0.8,4.1l24.9,0.4c0,0,3.3-7,1.7-9.5s-1.6-1.8,0.5-5.9s2.8-4.9,2-5.7
	s-0.8-5.2-0.8-5.2l-4.1-79.3c0,0-0.8-83.7-0.8-86.2c-0.1-1.3,0.2-2.6,0.7-3.7v-3.4l-3.2-12L399,318.4z"/>
<circle class="st3" cx="324.4" cy="126.3" r="25.7"/>
<path class="st4" d="M312.8,143.8l-1-0.8c0,0-2-1.6-3.9-1.3c-0.9,0.1-1.6,0.7-2.1,1.4c-0.3,0.4-0.8,0.6-1.3,0.5
	c-2.4-0.4-6.9-7.6-9.1-14.9c-1.4-4.5-3-12.6,1.5-16.9c0.3-2,3.9-19.6,19.5-20.1c16.1-0.5,26.7,2.7,29.3,8.9c0.4,1,0.9,2.3,1.3,3.7
	c0.5,1.4,0.1,2.9-1,3.9c-0.9,0.9-2.3,1.3-3.6,1c-0.1,0.8-0.3,1.6-0.6,2.3c-1.4,3-4.9,5-9,5.1c-2.4,0-4.8-0.5-7-1.4l6.5,5l-15.5-1.9
	l5.1,2.7l-1,0.5c-6.5,2.9-10.2,9.8-9.1,16.8L312.8,143.8z"/>
<path class="st5" d="M394.3,306.1c3.6-6.2,0.2-15.3,0.2-15.3s9.3-13.8,7.1-19.7l-11-85.3c0,0-3.4-9.2-11.5-13.8
	c-2.2-1.3-13.8-0.8-16.3-0.7l-8.2-3.5c-0.5,1.7-9.5-16.5-9.5-14.7c-5.7,0-9.4,0.8-18.4,2.3c-15.5,2.6-7.7,16.6-6.7,18.3
	c-0.4,0-0.8,0.1-1.2,0.2c-2,0.4-8.9,6.3-8.9,6.3l-12.3,10.9c-18.5,14.6-14.4,37.3-14.4,37.3l27,27.2l-11.8,54.6c0,0,5,8.1,2.4,11.7
	s22.9,2.6,22.9,2.6c17.6,7.9,79.7,1.2,79.7,1.2C402.6,323.5,394.3,306.1,394.3,306.1z"/>
<path class="st6" d="M1.2,607.6h681.4c0.7,0,1.2-0.5,1.2-1.2s-0.5-1.2-1.2-1.2H1.2c-0.7,0-1.2,0.5-1.2,1.2S0.5,607.6,1.2,607.6z"/>
<path class="st1" d="M448.1,581.5c0,5.2-0.2,10.3-0.5,15.4c-0.1,0-0.3,0-0.4,0H252.5c-18.1,0-33.9-12.3-38.3-29.9
	c-0.4-1.5-0.7-3-0.9-4.5c-0.2-1.7-0.3-3.4-0.3-5.1V334.2c15,0.7,29.9,2.8,44.5,6.3c1.4,0.3,2.8,0.7,4.3,1c0.1,0,0.2,0,0.3,0.1
	c1.4,0.4,2.8,0.7,4.3,1.1c30.1,8.3,58.3,22.2,83.2,41c1.4,1.1,2.8,2.2,4.3,3.3l0.3,0.2c2.4,1.9,4.7,3.8,7,5.7c0.5,0.4,1,0.9,1.5,1.3
	c1.2,1.1,2.5,2.1,3.7,3.2c26.6,23.9,47.6,53.3,61.8,86.1c0.5,1.1,0.9,2.2,1.4,3.2c0.2,0.4,0.4,0.9,0.5,1.3c0.2,0.4,0.3,0.8,0.5,1.2
	C442.1,518.6,448.1,549.9,448.1,581.5z"/>
<path class="st7" d="M358.3,559.3c0-39.3,31.9-71.2,71.2-71.2l0,0h0.4c-0.2-0.4-0.4-0.9-0.5-1.3c-0.4-1.1-0.9-2.2-1.4-3.2h-69.7
	v-89.3h4.2c-0.5-0.5-1-0.9-1.5-1.3c-2.3-2-4.6-3.9-7-5.7l-0.3-0.2v2.7h-87.5v-47c-1.4-0.4-2.8-0.8-4.3-1.1c-0.1,0-0.2,0-0.3-0.1
	v48.2h-44.5v4.5h44.5v89.3h-44.5v4.5h44.5v71.2h-44.1c0.2,1.5,0.5,3,0.9,4.5h43.3v29.9h4.5v-29.9h87.5v29.9h4.5v-29.9h76.3v-4.5
	H358.3z M353.7,559.3h-87.5v-71.2h87.5V559.3z M353.7,483.6h-87.5v-1.8c0-48.3,39.2-87.5,87.5-87.5V483.6z"/>
<path class="st3" d="M305.7,366.9c-3.4-3.8-3.1-9.7,0.8-13.1c0.4-0.4,0.8-0.7,1.3-1L296.1,307l16,6.1l8.9,43.3
	c2.4,4.5,0.7,10.2-3.9,12.6C313.2,371,308.5,370.1,305.7,366.9z"/>
<path class="st5" d="M284.2,219.7l-1.4,18.3c0,0-1.8,20.1-1.3,23.8s1.3,26.4,1.3,26.4l15.2,30l17.2-4.6l-1-14.1l1,12.9l2.3-11.5
	l-5.7-19.5l3.4-6.9l-1.7-23.1L284.2,219.7z"/>
<path class="st8" d="M679.9,343.3c-2-2.4-4.9-3.9-8-4.3c-0.4,0-0.9-0.1-1.3-0.1L440,338.7c-3.4,0-6.6,1.4-8.9,3.8
	c-2.2,2.4-3.4,5.6-3.4,8.8v37.5c0,6.8,1.5,13.5,4.3,19.7c-1.6,6-4.3,11.7-7.9,16.9c-3.3,4.7-2.1,11.3,2.6,14.6
	c1.9,1.3,4.3,2,6.6,1.8c2.4-0.2,4.9-0.4,7.3-0.8c7-1.1,13.7-3.7,19.6-7.6c4.5,1.4,9.3,2.2,14,2.2l162.2,0.2
	c12.4,0,24.2-4.9,32.9-13.6c8.8-9,13.7-21,13.6-33.6v-36.8C682.8,348.6,681.8,345.6,679.9,343.3z"/>
<path class="st2" d="M619.6,372.7l-128.9-0.1c-1.5,0-2.8-1.3-2.8-2.8s1.3-2.8,2.8-2.8l128.9,0.1c1.5,0,2.8,1.3,2.8,2.8
	C622.4,371.4,621.2,372.7,619.6,372.7z"/>
<path class="st2" d="M619.6,389.9l-128.9-0.1c-1.5,0-2.8-1.3-2.8-2.8s1.3-2.8,2.8-2.8l128.9,0.1c1.5,0,2.8,1.3,2.8,2.8
	C622.4,388.7,621.1,389.9,619.6,389.9L619.6,389.9L619.6,389.9z"/>
<path class="st2" d="M505.7,407h-15c-1.5,0-2.8-1.3-2.8-2.8s1.3-2.8,2.8-2.8h15c1.5,0,2.8,1.3,2.8,2.8
	C508.5,405.8,507.3,407,505.7,407z"/>
<path class="st9" d="M3.2,198.3c2-2.4,4.9-3.9,8-4.3c0.4,0,0.9-0.1,1.3-0.1l230.6-0.2c3.4,0,6.6,1.4,8.9,3.8
	c2.2,2.4,3.4,5.6,3.4,8.8v37.5c0,6.8-1.5,13.5-4.3,19.7c1.6,6,4.3,11.7,7.9,16.9c3.3,4.7,2.1,11.3-2.6,14.6c-1.9,1.3-4.3,2-6.6,1.8
	c-2.4-0.2-4.9-0.4-7.3-0.8c-7-1.1-13.7-3.7-19.6-7.6c-4.5,1.4-9.3,2.2-14,2.2l-162.2,0.2c-12.4,0-24.2-4.9-32.9-13.6
	c-8.8-9-13.7-21-13.6-33.6v-36.8C0.2,203.6,1.3,200.6,3.2,198.3z"/>
<path class="st2" d="M60.6,224.9c0-1.5,1.3-2.8,2.8-2.8l128.9-0.1c1.5,0,2.8,1.3,2.8,2.8s-1.3,2.8-2.8,2.8l-128.9,0.1
	C61.9,227.7,60.7,226.4,60.6,224.9z"/>
<path class="st2" d="M60.7,242.1c0-1.5,1.3-2.8,2.8-2.8l128.9-0.1c1.5,0,2.8,1.3,2.8,2.8s-1.3,2.8-2.8,2.8l-128.9,0.1
	C61.9,244.9,60.7,243.7,60.7,242.1z"/>
<path class="st2" d="M174.5,259.2c0-1.5,1.3-2.8,2.8-2.8h15c1.5,0,2.8,1.3,2.8,2.8s-1.3,2.8-2.8,2.8l0,0h-15
	C175.8,262,174.6,260.8,174.5,259.2z"/>
<path class="st3" d="M467.7,111.6c-4.9,2.4-6.8,8.3-4.4,13.2c0.3,0.5,0.6,1,0.9,1.5l-19.6,28.9l18.2,0.2l15.8-27.5
	c4.1-3.5,4.6-9.8,1.1-13.9C476.7,110.5,471.7,109.5,467.7,111.6L467.7,111.6z"/>
<path class="st5" d="M473.9,138.8l-30.2,55.5h-0.3c-0.2,0-9.8,0.7-21.6,1.3c-2,0.1-3.1,3.6-5.2,3.7c-1.4,0.1-6.7,6.7-8.1,6.7
	c-12.8,0.6-20.1,6.5-25,6c-6.6-0.5-15.4-18.7-20.2-23.3l-0.1-0.1v-0.2c-0.7-6.9,3.5-13.3,10-15.5c15.4-5,31.7-6.4,47.7-4l9.1,1.4
	l27.6-37.1L473.9,138.8z"/>
<path class="st8" d="M636.9,31.3c-2-2.4-4.9-3.9-8-4.3c-0.4,0-0.9-0.1-1.3-0.1L397,26.7c-3.4,0-6.6,1.4-8.9,3.8
	c-2.2,2.4-3.4,5.6-3.4,8.8v37.5c0,6.8,1.5,13.5,4.3,19.7c-1.6,6-4.3,11.7-7.9,16.9c-3.3,4.7-2.1,11.3,2.6,14.6
	c1.9,1.3,4.3,2,6.6,1.8c2.4-0.2,4.9-0.4,7.3-0.8c7-1.1,13.7-3.7,19.6-7.6c4.5,1.4,9.3,2.2,14,2.2l162.2,0.2
	c12.4,0,24.2-4.9,32.9-13.6c8.8-9,13.7-21,13.6-33.6V39.8C639.8,36.6,638.8,33.6,636.9,31.3z"/>
<path class="st2" d="M576.6,60.7l-128.9-0.1c-1.5,0-2.8-1.3-2.8-2.8s1.3-2.8,2.8-2.8l0,0l128.9,0.1c1.5,0,2.8,1.3,2.8,2.8
	C579.4,59.4,578.2,60.7,576.6,60.7z"/>
<path class="st2" d="M576.6,77.9l-128.9-0.1c-1.5,0-2.8-1.3-2.8-2.8s1.3-2.8,2.8-2.8l128.9,0.1c1.5,0,2.8,1.3,2.8,2.8
	C579.4,76.7,578.1,77.9,576.6,77.9L576.6,77.9z"/>
<path class="st2" d="M462.7,95h-15c-1.5,0-2.8-1.3-2.8-2.8s1.3-2.8,2.8-2.8l0,0h15c1.5,0,2.8,1.3,2.8,2.8
	C465.5,93.8,464.2,95,462.7,95L462.7,95z"/>
</svg>
