<?xml version="1.0" encoding="utf-8"?>
<!-- Generator: Adobe Illustrator 27.0.1, SVG Export Plug-In . SVG Version: 6.00 Build 0)  -->
<svg version="1.1" id="Layer_1" xmlns="http://www.w3.org/2000/svg" xmlns:xlink="http://www.w3.org/1999/xlink" x="0px" y="0px"
	 viewBox="0 0 572.9 457.2" style="enable-background:new 0 0 572.9 457.2;" xml:space="preserve">
<style type="text/css">
	.st0{fill:#FFB6B6;}
	.st1{fill:#2F2E41;}
	.st2{fill:#EC742C;}
	.st3{fill:#E6E6E6;}
	.st4{fill:#CCCCCC;}
	.st5{fill:#3F3D56;}
	.st6{fill:#FFFFFF;}
</style>
<g>
	<g>
		<polygon class="st0" points="458.3,450.5 449.1,450.5 444.7,414.8 458.3,414.8 		"/>
		<path class="st1" d="M426.6,450.3L426.6,450.3c-0.3,0.5-0.4,2.1-0.4,2.6l0,0c0,1.7,1.4,3.1,3.1,3.1H458c1.2,0,2.1-1,2.1-2.1v-1.2
			c0,0,1.4-3.6-1.5-8c0,0-3.6,3.5-9.1-2l-1.6-2.9l-11.6,8.5l-6.4,0.8C428.6,449.3,427.3,449.1,426.6,450.3z"/>
	</g>
	<g>
		<polygon class="st0" points="416.2,450.5 407,450.5 402.6,414.8 416.2,414.8 		"/>
		<path class="st1" d="M384.5,450.3L384.5,450.3c-0.3,0.5-0.4,2.1-0.4,2.6l0,0c0,1.7,1.4,3.1,3.1,3.1h28.7c1.2,0,2.1-1,2.1-2.1v-1.2
			c0,0,1.4-3.6-1.5-8c0,0-3.6,3.5-9.1-2l-1.6-2.9l-11.6,8.5l-6.4,0.8C386.5,449.3,385.2,449.1,384.5,450.3z"/>
	</g>
	<polygon class="st1" points="473.2,227.5 408.8,229.3 402.2,244.7 394.2,345.3 401,433.8 421.1,433.8 421.1,350.2 436.3,298.9 
		442.3,431.2 463,433.8 471.5,342.7 479.2,255.9 	"/>
	<path class="st2" d="M449.1,112.2l-22.3,1.3l-2.4,10.4c0,0-27.3,8.3-25.4,18.6s11.5,55.6,11.5,55.6s-8.8,29.4-2.8,32.7
		c6.1,3.3,68-1.4,68-1.4s4.8-13,2.2-14.7c-2.6-1.7,6-84.3,4.2-86s-30.3-9.7-30.3-9.7L449.1,112.2z"/>
	<g>
		<polygon class="st0" points="494.1,198.3 495.8,210.4 476.9,253.3 467.5,248.2 477.8,207.8 479.5,192.3 		"/>
		<path class="st2" d="M476.1,130.5c0,0,9.5-4.3,16.3,11.2c6.9,15.5,5.2,49,5.2,49s2.6,2.6,0.9,4.3s-5-2.3-1.7,3.1
			c1.7,2.9,6.9,2,1.7,2.9c-5.2,0.9-3.3-1.5-1.7,1.7c0.9,1.7,4.3,1.7,0.9,2.6c-3.4,0.9-20.7-0.6-20.7-0.6s-5.9-2.8-2.5-4.5
			s5.2-2.1,3.4-2.7s-6-0.7-3.4-3.3s4.3-2.6,2.6-2.6s-3.7-4.1-3.7-4.1L476.1,130.5L476.1,130.5z"/>
		
			<ellipse transform="matrix(0.3169 -0.9485 0.9485 0.3169 75.4956 621.4443)" class="st0" cx="469.2" cy="258.3" rx="12" ry="7.1"/>
	</g>
	<g>
		<polygon class="st0" points="374.4,194.3 367.6,204.3 324.7,223.3 321.2,213.1 356,190.2 367.7,180 		"/>
		<path class="st2" d="M406.8,131.9c0,0,9.9,3.2,4.5,19.3s-29.2,39.7-29.2,39.7s0.2,3.6-2.3,3.8s-2.1-5.1-3.4,1.2
			c-0.7,3.3,3.7,6.1-0.7,3.3s-1.4-3.4-2.4,0.1c-0.5,1.8,2,4.2-1.1,2.5s-14.9-14.4-14.9-14.4s-2.5-6.1,1.2-5s5.2,2,4.4,0.3
			s-4-4.6-0.3-4.7s4.9,1,3.6-0.2s0.1-5.5,0.1-5.5L406.8,131.9L406.8,131.9z"/>
		
			<ellipse transform="matrix(0.8732 -0.4874 0.4874 0.8732 -68.0218 181.9319)" class="st0" cx="315.6" cy="221.7" rx="12" ry="7.1"/>
	</g>
	<circle class="st0" cx="440.1" cy="87.6" r="20.6"/>
	<path class="st1" d="M423.6,71c1-3,4-4.8,7.1-4.7c0.1,0,0.3,0,0.4,0c1.6-0.1,3.1-0.6,4.7-0.9c2.9-0.6,6-0.4,8.8,0.6
		c0.9,0.3,1.7,0.7,2.7,0.7c0.9,0,1.9-0.5,2.2-1.4c0.1,0.8,0.1,1.6,0.2,2.4c0.3-0.7,0.6-1.3,0.9-2l0.6,2.6l1.9-2.2
		c-0.2,1,0.4,1.9,1.1,2.5c0.8,0.6,1.7,1,2.6,1.3c3.9,1.7,7.5,4.6,8.6,8.7c0.7,2.6,0.3,5.3,0,7.9c-0.3,2.3-0.7,4.7-2,6.7
		c-0.8,1.3-2,2.3-2.5,3.8c-0.5,1.3-0.3,2.9-0.9,4.1c-0.7,1.3-2,2-3.4,2.4c-1.3,0.5-2.7,0.8-3.9,1.6c-1.1,0.8-2.5,3.2-5,3.1l-0.8-1.5
		c-0.8-0.7,2.2-0.1,2.3-1.2c0-1.1-3.7-1.7-3.2-2.7c0.8-1.4,1.9-2.7,2.8-4c1.1-1.6,1.9-3.5,1.5-5.4c-0.1-0.8-0.5-1.5-1-2
		c-1.6-1.6-3.3-0.9-5-0.7c-1.2,0.2-2.6,0-3.2-1c-0.7-1.2,0.1-2.7,0-4c-0.1-1.5-1.2-2.6-2.4-3.5c-1.2-0.8-2.6-1.4-3.6-2.4
		c-1.1-1-0.9-0.5-0.4-1.8c-8,6-6.8-4.4-12.2-3.1C422.8,73.6,423.2,72.3,423.6,71L423.6,71z"/>
</g>
<path class="st3" d="M325.5,439.9c-2.1,1.1-4.2,2.6-5.8,5.2c-0.3,0.5-0.6,1-0.8,1.6c0.7-5,2.1-9.8,4.1-13.7c0.7-1.5-0.5-3.6-1.3-2.1
	l0,0c-3.2,1.7-4.6,5.6-5.1,10.2c-0.6-1.7-1.4-3.2-2.3-4.4c-0.4-0.5-0.9-0.6-1.3,0c-0.3,0.5-0.4,1.6,0,2.1c-1.4,7.3,2.2,9.5,3.4,13.2
	c0,0.8,0.1,1.6,0.1,2.4s0.3,1.2,0.7,1.4c0.2,0.4,0.5,0.7,0.8,0.7c0.5,0,0.9-0.7,0.9-1.5c0.1-3,0.4-8.2,2.2-7.9
	c3.8,0.6,3.9-2.5,4.9-4.3C326.7,441.4,326.6,439.3,325.5,439.9L325.5,439.9z"/>
<path class="st3" d="M515,439.9c2.1,1.1,4.2,2.6,5.8,5.2c0.3,0.5,0.6,1,0.8,1.6c-0.7-5-2.1-9.8-4.1-13.7c-0.7-1.5,0.5-3.6,1.3-2.1
	l0,0c3.2,1.7,4.6,5.6,5.1,10.2c0.6-1.7,1.4-3.2,2.3-4.4c0.4-0.5,0.9-0.6,1.3,0c0.3,0.5,0.4,1.6,0,2.1c1.4,7.3-2.2,9.5-3.4,13.2
	c0,0.8-0.1,1.6-0.1,2.4s-0.3,1.2-0.7,1.4c-0.2,0.4-0.5,0.7-0.8,0.7c-0.5,0-0.9-0.7-0.9-1.5c-0.1-3-0.4-8.2-2.2-7.9
	c-3.8,0.6-3.9-2.5-4.9-4.3C513.8,441.4,513.9,439.3,515,439.9L515,439.9z"/>
<path class="st4" d="M167.2,456c0,0.7,0.5,1.2,1.2,1.2h403.3c0.7,0,1.2-0.5,1.2-1.2s-0.5-1.2-1.2-1.2H168.4
	C167.7,454.8,167.2,455.3,167.2,456z"/>
<g>
	<path class="st5" d="M217.9,457.2H41.5c-21.5,0-39-17.5-39-39V39c0-21.5,17.5-39,39-39h176.4c21.5,0,39,17.5,39,39v379.1
		C256.9,439.7,239.4,457.2,217.9,457.2L217.9,457.2z"/>
	<path class="st5" d="M256.9,139.5c-0.9,0-1.7,0.7-1.7,1.7V194c0,0.9,0.7,1.7,1.7,1.7s1.7-0.7,1.7-1.7v-52.8
		C258.6,140.2,257.8,139.5,256.9,139.5z"/>
	<path class="st6" d="M253.2,39v379.1c0,18.7-14.6,34-33,35.2l0,0c-0.3,0-0.5,0-0.8,0c-0.5,0-1,0-1.5,0c0,0-1.8-0.1-5.1-0.4
		c-3.4-0.2-8.2-0.6-14.3-1.1c-1.8-0.1-3.7-0.3-5.8-0.5c-4-0.3-8.5-0.7-13.2-1.1c-1.9-0.2-3.9-0.3-5.9-0.5
		c-10.2-0.9-21.7-1.9-33.8-3.1c-2-0.2-4.1-0.4-6.2-0.6c-0.5-0.1-1.1-0.1-1.7-0.2C123.3,445,6.2,422.3,6.2,417.9V39
		C6.2,19.5,22,3.7,41.5,3.7h21.1c3.4,0,6.1,2.6,6.4,6c0,0.2,0,0.4,0.1,0.7c0.6,3.4,3.7,5.7,7.1,5.7h107.1c3.4,0,6.5-2.4,7.1-5.7
		c0-0.2,0.1-0.4,0.1-0.7c0.3-3.4,3-6,6.4-6H218C237.4,3.7,253.2,19.5,253.2,39L253.2,39z"/>
	<path class="st5" d="M1.7,99.9c-0.9,0-1.7,0.7-1.7,1.7v13.2c0,0.9,0.7,1.7,1.7,1.7s1.7-0.7,1.7-1.7v-13.2
		C3.3,100.6,2.6,99.9,1.7,99.9z"/>
	<path class="st5" d="M1.7,139.5c-0.9,0-1.7,0.7-1.7,1.7v25.6c0,0.9,0.7,1.7,1.7,1.7s1.7-0.7,1.7-1.7v-25.6
		C3.3,140.2,2.6,139.5,1.7,139.5z"/>
	<path class="st5" d="M1.7,175.8c-0.9,0-1.7,0.7-1.7,1.7V203c0,0.9,0.7,1.7,1.7,1.7s1.7-0.7,1.7-1.7v-25.6
		C3.3,176.5,2.6,175.8,1.7,175.8z"/>
	<path class="st3" d="M30.4,9.5H62c0.2,0,0.3,0.1,0.3,0.3v3.5c0,0.2-0.1,0.3-0.3,0.3H30.4c-0.2,0-0.3-0.1-0.3-0.3V9.8
		C30.1,9.6,30.3,9.5,30.4,9.5z"/>
	<circle class="st3" cx="202" cy="10.3" r="3.3"/>
	<circle class="st3" cx="211.1" cy="10.3" r="3.3"/>
	<circle class="st3" cx="220.2" cy="10.3" r="3.3"/>
</g>
<g>
	<g>
		<polygon class="st0" points="244.3,435.6 251.9,433.7 246.7,398.5 235.5,401.3 		"/>
		<path class="st1" d="M274.6,444.2L274.6,444.2c0.4,1.3-0.3,2.6-1.4,2.9l-15,4.2c0,0-3.1-5.5-9.9-6.4l1.9,8.6l-7.7,2.1l-2.8-13.9
			c0,0-4.1-6.7-0.8-11.7c3.3-4.9-0.1-3.4-0.1-3.4l-0.7-8.9l12.1-1.9L254,429l9.3,11.6l9.5,1.8C273.7,442.5,274.4,443.2,274.6,444.2
			L274.6,444.2z"/>
	</g>
	<g>
		<polygon class="st0" points="171.3,429.5 178.7,432.3 194.5,400.4 183.7,396.3 		"/>
		<path class="st1" d="M191.3,453.9L191.3,453.9c-0.4,1.3-1.7,2-2.8,1.6l-14.7-5.2c0,0,0.6-6.3-4.4-10.9l-3.3,8.2l-7.6-2.7l5.6-13
			c0,0,0.5-7.9,6-10s1.9-2.9,1.9-2.9l4.6-7.7l11,5.4l-4.5,13l1,14.9l6.7,6.9C191.4,452,191.6,453,191.3,453.9L191.3,453.9z"/>
	</g>
	<path class="st1" d="M203.2,115h-39c0.1-1.8-0.3-3.7-1.1-5.3c0,1.8-0.4,3.6-1.2,5.3h-1.8c-2.7,0-4.9-2.2-4.9-4.9V84.7
		c0-12.4,9.7-22.6,22.1-23.2c0.4,0,0.7,0,1.1,0c10.1,0,19.1,6.5,22.2,16.2c4.5-2.1,7.2,9.7,9,28.5C211,110.5,207.8,115,203.2,115z"
		/>
	<path class="st0" d="M279.7,259.7c1.9,4.6,1.1,9.3-1.8,10.5s-6.8-1.5-8.8-6.1c-0.8-2-1.2-4-1-5.8l-7.9-19.5l9.2-3.5l6.8,19.6
		C277.6,256.1,278.9,257.7,279.7,259.7L279.7,259.7z"/>
	<path class="st2" d="M194.3,106.4l-18.6,3.9l2.9,8.6l-5.7,65.6l9.5,21.1l58.1-4.8l-14.3-28.6c0,0,5.7-23.8-1.9-28.6
		s-20-28.6-20-28.6L194.3,106.4L194.3,106.4z"/>
	<path class="st1" d="M176.9,114.1l-16.5,6.7l5.7,83.8L153.8,277l40,6.7c0,0-4.8-160-7.6-162.9S176.9,114.1,176.9,114.1L176.9,114.1
		z"/>
	<path class="st1" d="M209.3,124.5c0,0,10.7-6.8,16.5-1.8s50.5,126.6,50.5,126.6l-12,5.2l-27.6-57.9L209.3,124.5z"/>
	<path class="st1" d="M240,329.4l10.9,83.7l-15.2,1c0,0-7.9-21.6-17-47.1c-1.9-5.4-3.9-11-5.8-16.6c-2.1-6.1-4.2-12.1-6.2-18
		c-4.9-14.4-9.3-27.5-11.8-36.1c-0.4-1.5-0.8-2.9-1.1-4.1c-6.7-25.6-10.5-92.5-10.5-92.5l55.2-4.8l0.6,0.7l11.8,14.7l-0.6,3.1
		L235.7,296L240,329.4L240,329.4z"/>
	<path class="st1" d="M235.7,296l4.3,33.4l-19.5,34.4l-1.8,3.2l-26.9,48.9l-13.3-7.5c0,0,17.3-39.7,28.1-75.9
		c1.2-4,2.3-7.9,3.3-11.7c2.9-11.2-1.9-31.7,0-37.3c6.4-19,27.1-57.1,36.8-74.3l3.6,4.5L235.7,296L235.7,296z"/>
	<polygon class="st1" points="204,114.3 223.3,121.7 273.8,269.3 243.3,274.1 229,188.4 	"/>
	<path class="st0" d="M155.8,273.7c-0.5,4.9-3.4,8.7-6.6,8.4s-5.3-4.6-4.8-9.5c0.2-2.2,0.9-4.1,1.9-5.6l2.3-20.9l9.8,1.3l-3.4,20.5
		C155.7,269.5,156,271.5,155.8,273.7z"/>
	<path class="st1" d="M167.1,120.8c0,0-12.4-2.9-16.2,3.8c-3.8,6.7-5.7,136.2-5.7,136.2l13.1,1l6.9-63.8L167.1,120.8L167.1,120.8z"
		/>
	<circle class="st0" cx="182.9" cy="84.3" r="19.8"/>
	<path class="st1" d="M207.8,82.6c0,0-9.6-2.9-15.4,0c-8,4-28.5,0-28.5,0v-8.9c0-5.2,3.9-9.6,9.1-10.3l14.8-1.8
		c11.6-1.5,21.9,7.6,21.9,19.3l0,0C209.5,81.8,208.7,82.6,207.8,82.6z"/>
	<path class="st1" d="M186.7,115h-22.4c0.1-1.8-0.3-3.7-1.1-5.3c0,1.8-0.4,3.6-1.2,5.3h-1V75h17.1L186.7,115z"/>
</g>
</svg>
